:SAMPLES-PER-SECOND 30
:FULLY-SPECIFIED
:DEGREES
408
root  -3.79783 41.0321 -0.185053 9.35396 -89.557 -7.73828
RightUpLeg  2.70919 -1.26722 -0.804222
RightLeg  -5.40067 -20.3291 2.82233
RightFoot  1.90573 -0.241116 2.11714
RightToes  -3.1126e-008 1.75238e-005 3.56266e-009
Spine  8.06458 -0.789443 -2.9267
Spine1  -14.0469 -1.09651 4.14962
HEad  -0.0818367 0.111366 -1.19653
LeftShoulder1  0.262355 2.2797 -14.5065
LeftArm  -45.4317 -29.21 -29.6229
LeftForeArm  80.5924 -79.6964 -65.8197
LeftHand  -0.653118 -5.5865 7.187
RightShoulder  1.01087 0.63185 17.9702
RightArm  -13.7474 -13.8925 42.7604
RightForeArm  51.4283 77.0867 50.9908
RightHand  -0.103918 7.87888 -1.28288
LeftUpLeg  3.05618 1.41642 3.48591
LeftLeg  -5.14961 16.8839 -1.53889
LeftFoot  1.73664 0.506473 -4.51006
LeftToes  4.78049e-008 1.46235e-008 1.34219e-009
409
root  -3.71742 41.0311 -0.141787 162.979 -88.4192 -161.424
RightUpLeg  2.45246 -1.07568 -0.708487
RightLeg  -5.39523 -18.6283 2.62551
RightFoot  2.21747 -0.246916 2.18172
RightToes  -3.1126e-008 1.75238e-005 3.56266e-009
Spine  8.33623 -0.267314 -1.54286
Spine1  -14.2028 -0.468717 2.71705
HEad  -0.527811 0.83525 -1.0095
LeftShoulder1  0.25426 2.32767 -14.7018
LeftArm  -48.7838 -24.8873 -26.2182
LeftForeArm  77.8766 -79.5494 -65.4936
LeftHand  -0.519996 -4.56951 6.32318
RightShoulder  1.19946 1.30365 18.4917
RightArm  -13.3649 -7.71255 43.4937
RightForeArm  45.05 75.7386 44.4307
RightHand  -0.110175 7.51933 -1.33218
LeftUpLeg  3.24205 1.4992 3.52131
LeftLeg  -5.06378 18.6768 -1.62082
LeftFoot  1.61311 0.501526 -4.50311
LeftToes  4.78049e-008 1.46235e-008 1.34219e-009
410
root  -3.65537 41.0269 -0.109581 170.931 -86.7562 -169.396
RightUpLeg  2.26947 -0.763094 -0.493709
RightLeg  -5.53567 -17.3319 2.45666
RightFoot  2.55522 -0.244267 2.11504
RightToes  -3.1126e-008 1.75238e-005 3.56266e-009
Spine  8.77331 0.0771853 0.0689211
Spine1  -14.592 0.022252 0.808369
HEad  -0.385444 0.84219 -0.957678
LeftShoulder1  0.205246 2.5461 -14.5061
LeftArm  -52.4655 -21.6702 -24.2214
LeftForeArm  76.1977 -79.4087 -63.8739
LeftHand  -0.669983 -5.4492 7.47305
RightShoulder  1.36916 1.83334 19.2629
RightArm  -12.7793 -2.66469 44.1694
RightForeArm  41.2594 74.6823 40.4972
RightHand  -0.00427389 6.95104 -0.373943
LeftUpLeg  3.37937 1.61638 3.62967
LeftLeg  -4.97991 20.1849 -1.67363
LeftFoot  1.49398 0.484435 -4.38749
LeftToes  4.78049e-008 1.46235e-008 1.34219e-009
411
root  -3.58614 41.0259 -0.083073 174.267 -84.9242 -172.688
RightUpLeg  1.78443 -0.577254 -0.443055
RightLeg  -5.2477 -15.7372 2.18568
RightFoot  2.72603 -0.247734 2.14454
RightToes  -3.1126e-008 1.75238e-005 3.56266e-009
Spine  9.22429 0.686231 1.30576
Spine1  -15.049 0.747933 -0.865876
HEad  -0.559436 0.10276 -0.815587
LeftShoulder1  0.184889 2.64316 -14.559
LeftArm  -55.0081 -17.9116 -21.7527
LeftForeArm  73.3113 -79.2019 -62.4664
LeftHand  -0.54401 -4.94794 6.40035
RightShoulder  1.40156 1.91916 19.4616
RightArm  -11.6431 0.893532 45.0641
RightForeArm  39.367 73.9056 37.9446
RightHand  -0.213937 7.58259 -2.2883
LeftUpLeg  3.59088 1.6992 3.59243
LeftLeg  -5.26225 22.0052 -1.93725
LeftFoot  1.5996 0.459924 -4.13989
LeftToes  4.78049e-008 1.46235e-008 1.34219e-009
412
root  -3.51215 41.0253 -0.0461024 174.942 -83.466 -173.281
RightUpLeg  1.45854 -0.416914 -0.365744
RightLeg  -5.31964 -14.463 2.09487
RightFoot  3.05552 -0.241288 2.02303
RightToes  -3.1126e-008 1.75238e-005 3.56266e-009
Spine  9.79216 1.17572 2.51933
Spine1  -15.592 1.34504 -2.4062
HEad  -0.617238 -0.394287 -0.33878
LeftShoulder1  0.105097 3.01516 -14.5782
LeftArm  -57.0182 -14.4942 -19.7894
LeftForeArm  71.481 -78.9473 -59.4014
LeftHand  -0.712879 -5.46896 7.93282
RightShoulder  1.43559 2.03017 19.5633
RightArm  -10.8773 4.08291 45.7914
RightForeArm  37.1938 73.1929 36.0214
RightHand  -0.186754 7.54926 -2.03812
LeftUpLeg  3.65075 1.65988 3.54416
LeftLeg  -5.42077 23.4763 -2.00625
LeftFoot  1.64657 0.457091 -4.10861
LeftToes  4.78049e-008 1.46235e-008 1.34219e-009
413
root  -3.44975 41.025 -0.0232745 175.996 -82.1823 -174.145
RightUpLeg  0.891636 -0.170036 -0.286769
RightLeg  -5.06945 -13.4525 1.83091
RightFoot  3.21147 -0.248179 2.11271
RightToes  -3.1126e-008 1.75238e-005 3.56266e-009
Spine  10.0446 1.77341 3.72844
Spine1  -15.915 2.05288 -4.19191
HEad  -1.00284 -1.40494 0.116048
LeftShoulder1  0.0521371 3.26195 -14.6047
LeftArm  -58.6974 -12.4068 -18.9553
LeftForeArm  68.8893 -78.6134 -56.4251
LeftHand  -0.726133 -5.66177 7.91795
RightShoulder  1.47661 2.16854 19.6594
RightArm  -10.6516 5.81594 46.4003
RightForeArm  36.9493 72.9091 35.1886
RightHand  -0.12367 7.88348 -1.45507
LeftUpLeg  3.52895 1.63396 3.48188
LeftLeg  -5.45317 24.8003 -2.08298
LeftFoot  1.62942 0.462086 -4.19361
LeftToes  4.78049e-008 1.46235e-008 1.34219e-009
414
root  -3.3884 41.0247 -0.00955232 176.218 -81.4978 -174.291
RightUpLeg  0.672095 -0.10229 -0.251297
RightLeg  -5.14378 -12.8459 1.81468
RightFoot  3.44251 -0.248731 2.1117
RightToes  -3.1126e-008 1.75238e-005 3.56266e-009
Spine  10.4112 2.22035 4.56273
Spine1  -16.3196 2.56896 -5.39734
HEad  -0.956351 -2.21364 0.279811
LeftShoulder1  0.0895531 3.09163 -14.851
LeftArm  -59.4111 -10.1245 -18.1801
LeftForeArm  67.8263 -78.5819 -56.805
LeftHand  -0.606079 -4.86264 7.16184
RightShoulder  1.51305 2.31595 19.6211
RightArm  -10.4214 7.01493 46.9115
RightForeArm  36.7231 72.5501 34.1607
RightHand  -0.0321513 8.32456 -0.651172
LeftUpLeg  3.38098 1.65986 3.5048
LeftLeg  -5.32482 25.4398 -2.08826
LeftFoot  1.5906 0.46799 -4.28922
LeftToes  4.78049e-008 1.46235e-008 1.34219e-009
